name analog
datacolumns 19
datarows 51
range 0.156 0.181
endheader
time	ground_force_vx	ground_force_vy	ground_force_vz	ground_force_px	ground_force_py	ground_force_pz	l_ground_force_vx	l_ground_force_vy	l_ground_force_vz	l_ground_force_px	l_ground_force_py	l_ground_force_pz	ground_torque_x	ground_torque_y	ground_torque_z	l_ground_torque_x	l_ground_torque_y	l_ground_torque_z
0.156	-0.0	-0.0	-0.0	-0.0	-0.0	-0.0	-1.05413556098938	3.8913283348083496	-737.6959838867188	-0.0	-0.0	-0.0	-0.0	-0.0	-0.0	257423.0625	-2711.129638671875	-1978.56298828125
0.1565	-0.0	-0.0	-0.0	-0.0	-0.0	-0.0	-0.1671725809574127	3.610985040664673	-737.0187377929688	-0.0	-0.0	-0.0	-0.0	-0.0	-0.0	256801.140625	-3189.3095703125	-1745.952880859375
0.157	-0.0	-0.0	-0.0	-0.0	-0.0	-0.0	0.3548431396484375	3.386547088623047	-735.0640258789062	-0.0	-0.0	-0.0	-0.0	-0.0	-0.0	256955.5	-3952.11474609375	-1513.4508056640625
0.1575	-0.0	-0.0	-0.0	-0.0	-0.0	-0.0	1.2319201231002808	3.9794692993164062	-737.7178344726562	-0.0	-0.0	-0.0	-0.0	-0.0	-0.0	257631.984375	-4107.41650390625	-1420.3099365234375
0.158	-0.0	-0.0	-0.0	-0.0	-0.0	-0.0	1.320775866508484	4.946014404296875	-739.91064453125	-0.0	-0.0	-0.0	-0.0	-0.0	-0.0	258335.84375	-4341.1181640625	-1355.7386474609375
0.1585	-0.0	-0.0	-0.0	-0.0	-0.0	-0.0	0.9856075048446656	5.4022417068481445	-742.3348999023438	-0.0	-0.0	-0.0	-0.0	-0.0	-0.0	259309.6875	-4918.2275390625	-1428.347412109375
0.159	-0.0	-0.0	-0.0	-0.0	-0.0	-0.0	0.3644871413707733	5.83403205871582	-744.7403564453125	-0.0	-0.0	-0.0	-0.0	-0.0	-0.0	260519.859375	-5071.7060546875	-1662.6700439453125
0.1595	-0.0	-0.0	-0.0	-0.0	-0.0	-0.0	-0.1774215698242187	6.187270641326904	-747.4396362304688	-0.0	-0.0	-0.0	-0.0	-0.0	-0.0	260898.28125	-4715.81884765625	-1803.2723388671875
0.16	-0.0	-0.0	-0.0	-0.0	-0.0	-0.0	-0.383120983839035	6.517035484313965	-746.8538818359375	-0.0	-0.0	-0.0	-0.0	-0.0	-0.0	261320.640625	-4656.68798828125	-2011.0440673828125
0.1605	-0.0	-0.0	-0.0	-0.0	-0.0	-0.0	-1.2605130672454834	5.926793098449707	-747.5153198242188	-0.0	-0.0	-0.0	-0.0	-0.0	-0.0	261562.34375	-4643.869140625	-2358.54833984375
0.161	-0.0	-0.0	-0.0	-0.0	-0.0	-0.0	-2.1994009017944336	6.275411605834961	-748.9482421875	-0.0	-0.0	-0.0	-0.0	-0.0	-0.0	261412.078125	-4762.6904296875	-2494.82080078125
0.1615	-0.0	-0.0	-0.0	-0.0	-0.0	-0.0	-2.58167576789856	5.992339611053467	-748.6702270507812	-0.0	-0.0	-0.0	-0.0	-0.0	-0.0	261625.640625	-4536.31298828125	-2676.138916015625
0.162	-0.0	-0.0	-0.0	-0.0	-0.0	-0.0	-3.3531734943389893	5.6437087059021	-749.6636352539062	-0.0	-0.0	-0.0	-0.0	-0.0	-0.0	261342.15625	-4471.33935546875	-2725.56982421875
0.1625	-0.0	-0.0	-0.0	-0.0	-0.0	-0.0	-3.162713527679444	5.405188083648682	-749.697998046875	-0.0	-0.0	-0.0	-0.0	-0.0	-0.0	261959.46875	-4588.74462890625	-2614.26171875
0.163	-0.0	-0.0	-0.0	-0.0	-0.0	-0.0	-3.104877471923828	5.366026878356934	-751.042236328125	-0.0	-0.0	-0.0	-0.0	-0.0	-0.0	261489.875	-4695.71728515625	-2575.81396484375
0.1635	-0.0	-0.0	-0.0	-0.0	-0.0	-0.0	-2.9818477630615234	4.521490097045898	-749.031494140625	-0.0	-0.0	-0.0	-0.0	-0.0	-0.0	261506.171875	-5140.705078125	-2515.2431640625
0.164	-0.0	-0.0	-0.0	-0.0	-0.0	-0.0	-2.538778066635132	3.886154174804688	-750.360107421875	-0.0	-0.0	-0.0	-0.0	-0.0	-0.0	260825.59375	-5359.8095703125	-2105.551025390625
0.1645	-0.0	-0.0	-0.0	-0.0	-0.0	-0.0	-1.1407694816589355	2.582022190093994	-748.962890625	-0.0	-0.0	-0.0	-0.0	-0.0	-0.0	260626.4375	-5468.2802734375	-1832.3758544921875
0.165	-0.0	-0.0	-0.0	-0.0	-0.0	-0.0	-0.439445436000824	2.3724141120910645	-749.6447143554688	-0.0	-0.0	-0.0	-0.0	-0.0	-0.0	260308.4375	-5833.71142578125	-1482.9119873046875
0.1655	-0.0	-0.0	-0.0	-0.0	-0.0	-0.0	0.0040479614399373	1.1240006685256958	-747.8668823242188	-0.0	-0.0	-0.0	-0.0	-0.0	-0.0	259908.078125	-6264.2802734375	-1331.88623046875
0.166	-0.0	-0.0	-0.0	-0.0	-0.0	-0.0	0.709686279296875	0.104153998196125	-746.0744018554688	-0.0	-0.0	-0.0	-0.0	-0.0	-0.0	259053.953125	-6632.9697265625	-1213.03564453125
0.1665	-0.0	-0.0	-0.0	-0.0	-0.0	-0.0	1.4311540126800537	-0.3611065447330475	-744.70947265625	-0.0	-0.0	-0.0	-0.0	-0.0	-0.0	258466.921875	-7164.8759765625	-771.652099609375
0.167	-0.0	-0.0	-0.0	-0.0	-0.0	-0.0	2.0519120693206787	-0.8908923864364624	-745.6664428710938	-0.0	-0.0	-0.0	-0.0	-0.0	-0.0	257848.453125	-7264.58349609375	-504.3445739746094
0.1675	-0.0	-0.0	-0.0	-0.0	-0.0	-0.0	2.8539698123931885	-1.4169363975524902	-742.6604614257812	-0.0	-0.0	-0.0	-0.0	-0.0	-0.0	257545.3125	-7785.18408203125	-350.4803771972656
0.168	-0.0	-0.0	-0.0	-0.0	-0.0	-0.0	3.4709575176239014	-1.7701629400253296	-743.9683837890625	-0.0	-0.0	-0.0	-0.0	-0.0	-0.0	257043.21875	-7717.32275390625	-147.5537872314453
0.1685	-0.0	-0.0	-0.0	-0.0	-0.0	-0.0	3.7258529663085938	-2.46569299697876	-743.721923828125	-0.0	-0.0	-0.0	-0.0	-0.0	-0.0	257326.296875	-7819.39794921875	-86.96858215332031
0.169	-0.0	-0.0	-0.0	-0.0	-0.0	-0.0	3.47421932220459	-2.134155511856079	-744.02783203125	-0.0	-0.0	-0.0	-0.0	-0.0	-0.0	256677.859375	-7811.68359375	-22.88703727722168
0.1695	-0.0	-0.0	-0.0	-0.0	-0.0	-0.0	3.463284730911255	-2.554231882095337	-746.0668334960938	-0.0	-0.0	-0.0	-0.0	-0.0	-0.0	256961.0	-7879.44970703125	29.094696044921875
0.17	-0.0	-0.0	-0.0	-0.0	-0.0	-0.0	3.009183168411255	-2.2859344482421875	-744.069580078125	-0.0	-0.0	-0.0	-0.0	-0.0	-0.0	257058.40625	-7490.99267578125	-179.9275360107422
0.1705	-0.0	-0.0	-0.0	-0.0	-0.0	-0.0	2.296150684356689	-2.2895076274871826	-744.6861572265625	-0.0	-0.0	-0.0	-0.0	-0.0	-0.0	256472.6875	-6899.49609375	-475.8759460449219
0.171	-0.0	-0.0	-0.0	-0.0	-0.0	-0.0	1.3890353441238403	-1.8513994216918943	-743.6929931640625	-0.0	-0.0	-0.0	-0.0	-0.0	-0.0	255856.109375	-6893.8984375	-745.592041015625
0.1715	-0.0	-0.0	-0.0	-0.0	-0.0	-0.0	0.9691737294197084	-1.5831745862960815	-742.6455078125	-0.0	-0.0	-0.0	-0.0	-0.0	-0.0	255304.953125	-7261.994140625	-714.9827880859375
0.17200000000000001	-0.0	-0.0	-0.0	-0.0	-0.0	-0.0	0.9660334587097168	-1.4982212781906128	-743.6544799804688	-0.0	-0.0	-0.0	-0.0	-0.0	-0.0	254445.234375	-7197.32275390625	-854.4971923828125
0.17250000000000001	-0.0	-0.0	-0.0	-0.0	-0.0	-0.0	1.3338510990142822	-1.5046439170837402	-739.1790161132812	-0.0	-0.0	-0.0	-0.0	-0.0	-0.0	253317.8125	-7244.80126953125	-415.7965698242188
0.17300000000000001	-0.0	-0.0	-0.0	-0.0	-0.0	-0.0	2.214628934860229	-2.0251448154449463	-738.8295288085938	-0.0	-0.0	-0.0	-0.0	-0.0	-0.0	252615.5625	-7428.84326171875	-28.603382110595703
0.17350000000000002	-0.0	-0.0	-0.0	-0.0	-0.0	-0.0	2.572612762451172	-2.5797293186187744	-739.0811767578125	-0.0	-0.0	-0.0	-0.0	-0.0	-0.0	251858.953125	-7703.845703125	263.000732421875
0.17400000000000002	-0.0	-0.0	-0.0	-0.0	-0.0	-0.0	3.013158798217773	-3.7155001163482666	-737.4437255859375	-0.0	-0.0	-0.0	-0.0	-0.0	-0.0	250992.0	-7848.3583984375	392.8663940429688
0.17450000000000002	-0.0	-0.0	-0.0	-0.0	-0.0	-0.0	3.2763805389404297	-5.22276496887207	-736.6633911132812	-0.0	-0.0	-0.0	-0.0	-0.0	-0.0	250146.265625	-8235.384765625	652.6228637695312
0.17500000000000002	-0.0	-0.0	-0.0	-0.0	-0.0	-0.0	3.6255948543548575	-6.726819038391113	-733.2410888671875	-0.0	-0.0	-0.0	-0.0	-0.0	-0.0	249047.640625	-8112.1015625	830.4976806640625
0.17550000000000002	-0.0	-0.0	-0.0	-0.0	-0.0	-0.0	3.285137414932251	-8.239350318908691	-732.4754638671875	-0.0	-0.0	-0.0	-0.0	-0.0	-0.0	248068.171875	-8241.7861328125	626.9849243164062
0.176	-0.0	-0.0	-0.0	-0.0	-0.0	-0.0	3.010610818862915	-9.707088470458984	-730.0651245117188	-0.0	-0.0	-0.0	-0.0	-0.0	-0.0	247157.59375	-8306.642578125	534.5572509765625
0.1765	-0.0	-0.0	-0.0	-0.0	-0.0	-0.0	2.758150815963745	-10.521055221557615	-727.0082397460938	-0.0	-0.0	-0.0	-0.0	-0.0	-0.0	246214.46875	-8272.31640625	241.12501525878903
0.177	-0.0	-0.0	-0.0	-0.0	-0.0	-0.0	3.295583486557007	-10.7699556350708	-725.9176025390625	-0.0	-0.0	-0.0	-0.0	-0.0	-0.0	245499.40625	-8595.392578125	416.6816711425781
0.1775	-0.0	-0.0	-0.0	-0.0	-0.0	-0.0	4.339003086090088	-10.671340942382812	-725.9273071289062	-0.0	-0.0	-0.0	-0.0	-0.0	-0.0	245037.796875	-9100.5361328125	590.1671142578125
0.178	-0.0	-0.0	-0.0	-0.0	-0.0	-0.0	5.152833938598633	-10.78282070159912	-728.0010375976562	-0.0	-0.0	-0.0	-0.0	-0.0	-0.0	245385.015625	-9140.2158203125	891.695068359375
0.1785	-0.0	-0.0	-0.0	-0.0	-0.0	-0.0	6.475887298583984	-10.52260398864746	-728.0005493164062	-0.0	-0.0	-0.0	-0.0	-0.0	-0.0	245627.140625	-9651.748046875	1128.3387451171875
0.179	-0.0	-0.0	-0.0	-0.0	-0.0	-0.0	7.89766263961792	-10.16895580291748	-730.0760498046875	-0.0	-0.0	-0.0	-0.0	-0.0	-0.0	246001.609375	-10142.8662109375	1454.9647216796875
0.1795	-0.0	-0.0	-0.0	-0.0	-0.0	-0.0	8.693656921386719	-10.419614791870115	-731.48193359375	-0.0	-0.0	-0.0	-0.0	-0.0	-0.0	246355.359375	-10559.177734375	1574.1558837890625
0.18	-0.0	-0.0	-0.0	-0.0	-0.0	-0.0	8.25698471069336	-9.980350494384766	-732.2340698242188	-0.0	-0.0	-0.0	-0.0	-0.0	-0.0	247116.859375	-10642.84765625	1431.8135986328125
0.1805	-0.0	-0.0	-0.0	-0.0	-0.0	-0.0	8.243438720703125	-9.719808578491213	-732.8692626953125	-0.0	-0.0	-0.0	-0.0	-0.0	-0.0	247421.46875	-10591.08984375	1425.7821044921875
0.181	-0.0	-0.0	-0.0	-0.0	-0.0	-0.0	7.2764573097229	-9.624899864196776	-732.196533203125	-0.0	-0.0	-0.0	-0.0	-0.0	-0.0	246765.5625	-10407.6396484375	1099.5731201171875
